# xmcd
#
# Track frame offsets:
#	150
#	18227
#	37202
#	57632
#	73135
#	95245
#	112995
#	135290
#	155407
#	176135
#	200080
#
# Disc length: 3010 seconds
#
# Revision: 3
# Processed by: cddbd v1.5.2PL0 Copyright (c) Steve Scherf et al.
# Submitted via: audiograbber 1.83.01
#
DISCID=a30bc00b
DTITLE=King Swamp - King Swamp
DYEAR=1989
DGENRE=Rock
TTITLE0=Is This Love?
TTITLE1=Blown Away
TTITLE2=Man Behind The Gun
TTITLE3=Original Man
TTITLE4=Widders Dump
TTITLE5=Year Zero
TTITLE6=The Mirror
TTITLE7=Motherlode
TTITLE8=Louisiana Bride
TTITLE9=The Sacrament
TTITLE10=Glow
EXTD=
EXTT0=
EXTT1=
EXTT2=
EXTT3=
EXTT4=
EXTT5=
EXTT6=
EXTT7=
EXTT8=
EXTT9=
EXTT10=
PLAYORDER=
